<mxfile host="app.diagrams.net" modified="2023-05-12T07:47:34.046Z" agent="Mozilla/5.0 (Windows NT 10.0; Win64; x64) AppleWebKit/537.36 (KHTML, like Gecko) Chrome/113.0.0.0 Safari/537.36 Edg/113.0.1774.35" etag="re73cT_hMpcZKHs88u2K" version="21.2.9" type="github">
  <diagram name="第 1 页" id="NDWKnzEPHrljbDT7hTDo">
    <mxGraphModel dx="961" dy="550" grid="1" gridSize="10" guides="1" tooltips="1" connect="1" arrows="1" fold="1" page="1" pageScale="1" pageWidth="827" pageHeight="1169" math="0" shadow="0">
      <root>
        <mxCell id="0" />
        <mxCell id="1" parent="0" />
        <mxCell id="UJ0Nv2wdFsxsvXTZG-oF-1" value="" style="rounded=1;whiteSpace=wrap;html=1;dashed=1;" vertex="1" parent="1">
          <mxGeometry x="130" y="255" width="620" height="50" as="geometry" />
        </mxCell>
        <mxCell id="UJ0Nv2wdFsxsvXTZG-oF-2" value="&lt;b&gt;&lt;font style=&quot;font-size: 18px;&quot;&gt;技術路綫：&lt;/font&gt;&lt;/b&gt;" style="text;html=1;strokeColor=none;fillColor=none;align=center;verticalAlign=middle;whiteSpace=wrap;rounded=0;" vertex="1" parent="1">
          <mxGeometry x="150" y="260" width="100" height="40" as="geometry" />
        </mxCell>
        <mxCell id="UJ0Nv2wdFsxsvXTZG-oF-8" style="edgeStyle=orthogonalEdgeStyle;rounded=0;orthogonalLoop=1;jettySize=auto;html=1;entryX=0;entryY=0.5;entryDx=0;entryDy=0;" edge="1" parent="1" source="UJ0Nv2wdFsxsvXTZG-oF-3" target="UJ0Nv2wdFsxsvXTZG-oF-6">
          <mxGeometry relative="1" as="geometry">
            <Array as="points">
              <mxPoint x="420" y="280" />
              <mxPoint x="420" y="280" />
            </Array>
          </mxGeometry>
        </mxCell>
        <mxCell id="UJ0Nv2wdFsxsvXTZG-oF-11" value="推動&lt;br&gt;内存&lt;br&gt;池化" style="edgeLabel;html=1;align=center;verticalAlign=middle;resizable=0;points=[];" vertex="1" connectable="0" parent="UJ0Nv2wdFsxsvXTZG-oF-8">
          <mxGeometry x="-0.1467" relative="1" as="geometry">
            <mxPoint x="-1" as="offset" />
          </mxGeometry>
        </mxCell>
        <mxCell id="UJ0Nv2wdFsxsvXTZG-oF-3" value="一體化存儲" style="rounded=0;whiteSpace=wrap;html=1;strokeColor=none;fillColor=#E6E6E6;" vertex="1" parent="1">
          <mxGeometry x="270" y="265" width="130" height="30" as="geometry" />
        </mxCell>
        <mxCell id="UJ0Nv2wdFsxsvXTZG-oF-9" style="edgeStyle=orthogonalEdgeStyle;rounded=0;orthogonalLoop=1;jettySize=auto;html=1;entryX=0;entryY=0.5;entryDx=0;entryDy=0;" edge="1" parent="1" source="UJ0Nv2wdFsxsvXTZG-oF-6" target="UJ0Nv2wdFsxsvXTZG-oF-7">
          <mxGeometry relative="1" as="geometry" />
        </mxCell>
        <mxCell id="UJ0Nv2wdFsxsvXTZG-oF-10" value="&lt;span style=&quot;font-size: 10px;&quot;&gt;加劇&lt;br&gt;&lt;/span&gt;網絡&lt;br&gt;瓶頸" style="edgeLabel;html=1;align=center;verticalAlign=middle;resizable=0;points=[];" vertex="1" connectable="0" parent="UJ0Nv2wdFsxsvXTZG-oF-9">
          <mxGeometry x="-0.3467" relative="1" as="geometry">
            <mxPoint x="3" as="offset" />
          </mxGeometry>
        </mxCell>
        <mxCell id="UJ0Nv2wdFsxsvXTZG-oF-6" value="NVM資源池" style="rounded=0;whiteSpace=wrap;html=1;strokeColor=none;fillColor=#E6E6E6;" vertex="1" parent="1">
          <mxGeometry x="440" y="265" width="130" height="30" as="geometry" />
        </mxCell>
        <mxCell id="UJ0Nv2wdFsxsvXTZG-oF-7" value="分佈式集群" style="rounded=0;whiteSpace=wrap;html=1;strokeColor=none;fillColor=#E6E6E6;" vertex="1" parent="1">
          <mxGeometry x="610" y="265" width="130" height="30" as="geometry" />
        </mxCell>
        <mxCell id="UJ0Nv2wdFsxsvXTZG-oF-12" value="" style="rounded=0;whiteSpace=wrap;html=1;" vertex="1" parent="1">
          <mxGeometry x="130" y="310" width="110" height="110" as="geometry" />
        </mxCell>
        <mxCell id="UJ0Nv2wdFsxsvXTZG-oF-13" value="NVDIMM" style="rounded=0;whiteSpace=wrap;html=1;strokeColor=none;fillColor=#D4E1F5;" vertex="1" parent="1">
          <mxGeometry x="147.5" y="315" width="75" height="20" as="geometry" />
        </mxCell>
        <mxCell id="UJ0Nv2wdFsxsvXTZG-oF-15" value="PCIe NVM" style="rounded=0;whiteSpace=wrap;html=1;strokeColor=none;fillColor=#D4E1F5;" vertex="1" parent="1">
          <mxGeometry x="147.5" y="344" width="75" height="20" as="geometry" />
        </mxCell>
        <mxCell id="UJ0Nv2wdFsxsvXTZG-oF-16" value="數據" style="rounded=0;whiteSpace=wrap;html=1;dashed=1;" vertex="1" parent="1">
          <mxGeometry x="163.75" y="373" width="42.5" height="20" as="geometry" />
        </mxCell>
        <mxCell id="UJ0Nv2wdFsxsvXTZG-oF-17" value="混合内存池" style="text;html=1;strokeColor=none;fillColor=none;align=center;verticalAlign=middle;whiteSpace=wrap;rounded=0;" vertex="1" parent="1">
          <mxGeometry x="147.5" y="389" width="75" height="30" as="geometry" />
        </mxCell>
        <mxCell id="UJ0Nv2wdFsxsvXTZG-oF-24" style="edgeStyle=orthogonalEdgeStyle;rounded=1;orthogonalLoop=1;jettySize=auto;html=1;entryX=0.5;entryY=0;entryDx=0;entryDy=0;shape=flexArrow;endWidth=10;endSize=2.118918918918919;fillColor=#D5E8D4;" edge="1" parent="1" source="UJ0Nv2wdFsxsvXTZG-oF-19" target="UJ0Nv2wdFsxsvXTZG-oF-20">
          <mxGeometry relative="1" as="geometry" />
        </mxCell>
        <mxCell id="UJ0Nv2wdFsxsvXTZG-oF-53" style="edgeStyle=orthogonalEdgeStyle;rounded=1;orthogonalLoop=1;jettySize=auto;html=1;exitX=1;exitY=0.5;exitDx=0;exitDy=0;entryX=0;entryY=0.5;entryDx=0;entryDy=0;shape=flexArrow;width=10;endWidth=10;endSize=2.2634615384615384;fillColor=#D5E8D4;" edge="1" parent="1" source="UJ0Nv2wdFsxsvXTZG-oF-19" target="UJ0Nv2wdFsxsvXTZG-oF-44">
          <mxGeometry relative="1" as="geometry" />
        </mxCell>
        <mxCell id="UJ0Nv2wdFsxsvXTZG-oF-19" value="混合NVM設計" style="rounded=0;whiteSpace=wrap;html=1;" vertex="1" parent="1">
          <mxGeometry x="270" y="318" width="130" height="22" as="geometry" />
        </mxCell>
        <mxCell id="UJ0Nv2wdFsxsvXTZG-oF-25" style="edgeStyle=orthogonalEdgeStyle;rounded=1;orthogonalLoop=1;jettySize=auto;html=1;entryX=0.5;entryY=-0.015;entryDx=0;entryDy=0;entryPerimeter=0;shape=flexArrow;endWidth=10;endSize=2;startSize=6;fillColor=#D5E8D4;" edge="1" parent="1" source="UJ0Nv2wdFsxsvXTZG-oF-20" target="UJ0Nv2wdFsxsvXTZG-oF-21">
          <mxGeometry relative="1" as="geometry" />
        </mxCell>
        <mxCell id="UJ0Nv2wdFsxsvXTZG-oF-55" style="edgeStyle=orthogonalEdgeStyle;rounded=1;orthogonalLoop=1;jettySize=auto;html=1;entryX=0;entryY=0.5;entryDx=0;entryDy=0;shape=flexArrow;endWidth=10;endSize=2.2634615384615384;fillColor=#D5E8D4;" edge="1" parent="1" source="UJ0Nv2wdFsxsvXTZG-oF-20" target="UJ0Nv2wdFsxsvXTZG-oF-46">
          <mxGeometry relative="1" as="geometry" />
        </mxCell>
        <mxCell id="UJ0Nv2wdFsxsvXTZG-oF-20" value="協作式元數據管理" style="rounded=0;whiteSpace=wrap;html=1;" vertex="1" parent="1">
          <mxGeometry x="270" y="354" width="130" height="22" as="geometry" />
        </mxCell>
        <mxCell id="UJ0Nv2wdFsxsvXTZG-oF-56" style="edgeStyle=orthogonalEdgeStyle;rounded=1;orthogonalLoop=1;jettySize=auto;html=1;entryX=0;entryY=0.5;entryDx=0;entryDy=0;shape=flexArrow;endWidth=10;endSize=2.2634615384615384;fillColor=#D5E8D4;" edge="1" parent="1" source="UJ0Nv2wdFsxsvXTZG-oF-21" target="UJ0Nv2wdFsxsvXTZG-oF-47">
          <mxGeometry relative="1" as="geometry" />
        </mxCell>
        <mxCell id="UJ0Nv2wdFsxsvXTZG-oF-21" value="持久化鍵值存儲" style="rounded=0;whiteSpace=wrap;html=1;" vertex="1" parent="1">
          <mxGeometry x="270" y="390" width="130" height="22" as="geometry" />
        </mxCell>
        <mxCell id="UJ0Nv2wdFsxsvXTZG-oF-40" value="" style="endArrow=classic;html=1;rounded=1;entryX=0;entryY=0.5;entryDx=0;entryDy=0;shape=flexArrow;width=10;endSize=2.2634615384615384;endWidth=10;fillColor=#D5E8D4;" edge="1" parent="1" target="UJ0Nv2wdFsxsvXTZG-oF-20">
          <mxGeometry width="50" height="50" relative="1" as="geometry">
            <mxPoint x="240" y="365" as="sourcePoint" />
            <mxPoint x="260" y="340" as="targetPoint" />
          </mxGeometry>
        </mxCell>
        <mxCell id="UJ0Nv2wdFsxsvXTZG-oF-41" value="" style="endArrow=classic;html=1;rounded=1;entryX=0;entryY=0.5;entryDx=0;entryDy=0;shape=flexArrow;width=10;endSize=2.2634615384615384;endWidth=10;fillColor=#D5E8D4;" edge="1" parent="1">
          <mxGeometry width="50" height="50" relative="1" as="geometry">
            <mxPoint x="240" y="400.9" as="sourcePoint" />
            <mxPoint x="270" y="400.9" as="targetPoint" />
          </mxGeometry>
        </mxCell>
        <mxCell id="UJ0Nv2wdFsxsvXTZG-oF-42" value="" style="endArrow=classic;html=1;rounded=1;entryX=0;entryY=0.5;entryDx=0;entryDy=0;shape=flexArrow;width=10;endSize=2.2634615384615384;endWidth=10;fillColor=#D5E8D4;" edge="1" parent="1">
          <mxGeometry width="50" height="50" relative="1" as="geometry">
            <mxPoint x="240" y="330" as="sourcePoint" />
            <mxPoint x="270" y="330" as="targetPoint" />
          </mxGeometry>
        </mxCell>
        <mxCell id="UJ0Nv2wdFsxsvXTZG-oF-43" style="edgeStyle=orthogonalEdgeStyle;rounded=1;orthogonalLoop=1;jettySize=auto;html=1;entryX=0.5;entryY=0;entryDx=0;entryDy=0;shape=flexArrow;endWidth=10;endSize=2.118918918918919;fillColor=#D5E8D4;" edge="1" parent="1" source="UJ0Nv2wdFsxsvXTZG-oF-44" target="UJ0Nv2wdFsxsvXTZG-oF-46">
          <mxGeometry relative="1" as="geometry" />
        </mxCell>
        <mxCell id="UJ0Nv2wdFsxsvXTZG-oF-54" style="edgeStyle=orthogonalEdgeStyle;rounded=1;orthogonalLoop=1;jettySize=auto;html=1;entryX=0;entryY=0.5;entryDx=0;entryDy=0;shape=flexArrow;endWidth=10.857142857142858;endSize=2.2634615384615384;fillColor=#D5E8D4;" edge="1" parent="1" source="UJ0Nv2wdFsxsvXTZG-oF-44" target="UJ0Nv2wdFsxsvXTZG-oF-49">
          <mxGeometry relative="1" as="geometry" />
        </mxCell>
        <mxCell id="UJ0Nv2wdFsxsvXTZG-oF-44" value="動態内存資源管理機制" style="rounded=0;whiteSpace=wrap;html=1;" vertex="1" parent="1">
          <mxGeometry x="440" y="318" width="130" height="22" as="geometry" />
        </mxCell>
        <mxCell id="UJ0Nv2wdFsxsvXTZG-oF-45" style="edgeStyle=orthogonalEdgeStyle;rounded=1;orthogonalLoop=1;jettySize=auto;html=1;entryX=0.5;entryY=-0.015;entryDx=0;entryDy=0;entryPerimeter=0;shape=flexArrow;endWidth=10;endSize=2;startSize=6;fillColor=#D5E8D4;" edge="1" parent="1" source="UJ0Nv2wdFsxsvXTZG-oF-46" target="UJ0Nv2wdFsxsvXTZG-oF-47">
          <mxGeometry relative="1" as="geometry" />
        </mxCell>
        <mxCell id="UJ0Nv2wdFsxsvXTZG-oF-58" style="edgeStyle=orthogonalEdgeStyle;rounded=1;orthogonalLoop=1;jettySize=auto;html=1;entryX=0;entryY=0.5;entryDx=0;entryDy=0;shape=flexArrow;endWidth=10;endSize=2.2634615384615384;fillColor=#D5E8D4;" edge="1" parent="1" source="UJ0Nv2wdFsxsvXTZG-oF-46" target="UJ0Nv2wdFsxsvXTZG-oF-51">
          <mxGeometry relative="1" as="geometry" />
        </mxCell>
        <mxCell id="UJ0Nv2wdFsxsvXTZG-oF-46" value="多層級資源分配與共享" style="rounded=0;whiteSpace=wrap;html=1;" vertex="1" parent="1">
          <mxGeometry x="440" y="354" width="130" height="22" as="geometry" />
        </mxCell>
        <mxCell id="UJ0Nv2wdFsxsvXTZG-oF-57" style="edgeStyle=orthogonalEdgeStyle;rounded=1;orthogonalLoop=1;jettySize=auto;html=1;entryX=0;entryY=0.5;entryDx=0;entryDy=0;shape=flexArrow;endWidth=10;endSize=2.2634615384615384;fillColor=#D5E8D4;" edge="1" parent="1" source="UJ0Nv2wdFsxsvXTZG-oF-47" target="UJ0Nv2wdFsxsvXTZG-oF-52">
          <mxGeometry relative="1" as="geometry" />
        </mxCell>
        <mxCell id="UJ0Nv2wdFsxsvXTZG-oF-47" value="基於異構内存數據管理" style="rounded=0;whiteSpace=wrap;html=1;" vertex="1" parent="1">
          <mxGeometry x="440" y="390" width="130" height="22" as="geometry" />
        </mxCell>
        <mxCell id="UJ0Nv2wdFsxsvXTZG-oF-48" style="edgeStyle=orthogonalEdgeStyle;rounded=1;orthogonalLoop=1;jettySize=auto;html=1;entryX=0.5;entryY=0;entryDx=0;entryDy=0;shape=flexArrow;endWidth=10;endSize=2.118918918918919;fillColor=#D5E8D4;" edge="1" parent="1" source="UJ0Nv2wdFsxsvXTZG-oF-49" target="UJ0Nv2wdFsxsvXTZG-oF-51">
          <mxGeometry relative="1" as="geometry" />
        </mxCell>
        <mxCell id="UJ0Nv2wdFsxsvXTZG-oF-49" value="拓撲感知調度" style="rounded=0;whiteSpace=wrap;html=1;" vertex="1" parent="1">
          <mxGeometry x="610" y="318" width="130" height="22" as="geometry" />
        </mxCell>
        <mxCell id="UJ0Nv2wdFsxsvXTZG-oF-50" style="edgeStyle=orthogonalEdgeStyle;rounded=1;orthogonalLoop=1;jettySize=auto;html=1;entryX=0.5;entryY=-0.015;entryDx=0;entryDy=0;entryPerimeter=0;shape=flexArrow;endWidth=10;endSize=2;startSize=6;fillColor=#D5E8D4;" edge="1" parent="1" source="UJ0Nv2wdFsxsvXTZG-oF-51" target="UJ0Nv2wdFsxsvXTZG-oF-52">
          <mxGeometry relative="1" as="geometry" />
        </mxCell>
        <mxCell id="UJ0Nv2wdFsxsvXTZG-oF-51" value="數據交換優化" style="rounded=0;whiteSpace=wrap;html=1;" vertex="1" parent="1">
          <mxGeometry x="610" y="354" width="130" height="22" as="geometry" />
        </mxCell>
        <mxCell id="UJ0Nv2wdFsxsvXTZG-oF-52" value="數據異步互通機制" style="rounded=0;whiteSpace=wrap;html=1;" vertex="1" parent="1">
          <mxGeometry x="610" y="390" width="130" height="22" as="geometry" />
        </mxCell>
        <mxCell id="UJ0Nv2wdFsxsvXTZG-oF-62" value="" style="rounded=1;whiteSpace=wrap;html=1;dashed=1;" vertex="1" parent="1">
          <mxGeometry x="130" y="424" width="620" height="36" as="geometry" />
        </mxCell>
        <mxCell id="UJ0Nv2wdFsxsvXTZG-oF-63" value="&lt;b&gt;&lt;font style=&quot;font-size: 18px;&quot;&gt;研究方法：&lt;/font&gt;&lt;/b&gt;" style="text;html=1;strokeColor=none;fillColor=none;align=center;verticalAlign=middle;whiteSpace=wrap;rounded=0;" vertex="1" parent="1">
          <mxGeometry x="150" y="422" width="100" height="40" as="geometry" />
        </mxCell>
        <mxCell id="UJ0Nv2wdFsxsvXTZG-oF-66" value="系統設計方法" style="rounded=0;whiteSpace=wrap;html=1;strokeColor=none;fillColor=#E6E6E6;" vertex="1" parent="1">
          <mxGeometry x="270" y="427" width="130" height="30" as="geometry" />
        </mxCell>
        <mxCell id="UJ0Nv2wdFsxsvXTZG-oF-69" value="數學建模優化" style="rounded=0;whiteSpace=wrap;html=1;strokeColor=none;fillColor=#E6E6E6;" vertex="1" parent="1">
          <mxGeometry x="440" y="427" width="130" height="30" as="geometry" />
        </mxCell>
        <mxCell id="UJ0Nv2wdFsxsvXTZG-oF-70" value="算法設計理論" style="rounded=0;whiteSpace=wrap;html=1;strokeColor=none;fillColor=#E6E6E6;" vertex="1" parent="1">
          <mxGeometry x="610" y="427" width="130" height="30" as="geometry" />
        </mxCell>
      </root>
    </mxGraphModel>
  </diagram>
</mxfile>
